<svg width="134" height="221" viewBox="0 0 134 221" fill="none" xmlns="http://www.w3.org/2000/svg">
<path d="M6.87863 2.389L7.03423 0.897097L4.05042 0.585886L3.89481 2.07779L6.87863 2.389ZM133.621 209.497C134.171 208.878 134.116 207.93 133.497 207.379L123.411 198.406C122.792 197.856 121.844 197.911 121.293 198.53C120.742 199.149 120.798 200.097 121.417 200.648L130.382 208.624L122.406 217.589C121.856 218.208 121.911 219.156 122.53 219.707C123.149 220.258 124.097 220.202 124.648 219.583L133.621 209.497ZM3.89481 2.07779C-1.96026 58.2147 -0.32423 111.891 18.0524 150.708C27.2599 170.157 40.6832 185.902 59.4742 196.323C78.255 206.738 102.279 211.768 132.587 209.997L132.413 207.003C102.523 208.748 79.097 203.774 60.9291 193.699C42.7714 183.63 29.7476 168.4 20.7639 149.424C2.75792 111.39 1.03491 58.4171 6.87863 2.389L3.89481 2.07779Z" fill="#5479F7"/>
</svg>
