<svg width="96" height="96" viewBox="0 0 96 96" fill="none" xmlns="http://www.w3.org/2000/svg">
<path d="M18 66.001C12 71.041 10 86.001 10 86.001C10 86.001 24.96 84.001 30 78.001C32.84 74.641 32.8 69.481 29.64 66.361C28.0852 64.877 26.0372 64.0195 23.8889 63.9531C21.7406 63.8867 19.6435 64.6159 18 66.001Z" fill="#9EBDFF"/>
<path d="M48 60.001L36 48.001C38.1286 42.4787 40.8088 37.1852 44 32.201C48.6607 24.7489 55.1505 18.6132 62.852 14.3774C70.5535 10.1415 79.2107 7.94648 88 8.00099C88 18.881 84.88 38.001 64 52.001C58.9475 55.1959 53.5874 57.876 48 60.001Z" fill="#9EBDFF"/>
<path d="M36 48.001H16C16 48.001 18.2 35.881 24 32.001C30.48 27.681 44 32.001 44 32.001" fill="#9EBDFF"/>
<path d="M48 60.001V80.001C48 80.001 60.12 77.801 64 72.001C68.32 65.521 64 52.001 64 52.001" fill="#9EBDFF"/>
<path d="M48 60.001L36 48.001M48 60.001C53.5874 57.876 58.9475 55.1959 64 52.001M48 60.001V80.001C48 80.001 60.12 77.801 64 72.001C68.32 65.521 64 52.001 64 52.001M36 48.001C38.1286 42.4787 40.8088 37.1852 44 32.201C48.6607 24.7489 55.1505 18.6132 62.852 14.3774C70.5535 10.1415 79.2107 7.94648 88 8.00099C88 18.881 84.88 38.001 64 52.001M36 48.001H16C16 48.001 18.2 35.881 24 32.001C30.48 27.681 44 32.001 44 32.001M18 66.001C12 71.041 10 86.001 10 86.001C10 86.001 24.96 84.001 30 78.001C32.84 74.641 32.8 69.481 29.64 66.361C28.0852 64.877 26.0372 64.0195 23.8889 63.9531C21.7406 63.8867 19.6435 64.6159 18 66.001Z" stroke="#5479F7" stroke-width="8" stroke-linecap="round" stroke-linejoin="round"/>
</svg>
