<svg width="96" height="96" viewBox="0 0 96 96" fill="none" xmlns="http://www.w3.org/2000/svg">
<path d="M75.9998 8L63.9998 20V32H75.9998L87.9998 20L79.9998 16L75.9998 8Z" fill="#9EBDFF"/>
<path d="M63.9998 32L47.9999 47.9998L63.9998 32Z" fill="#9EBDFF"/>
<path d="M63.9998 32V20L75.9998 8L79.9998 16L87.9998 20L75.9998 32H63.9998ZM63.9998 32L47.9999 47.9998M88 48C88 70.0914 70.0914 88 48 88C25.9086 88 8 70.0914 8 48C8 25.9086 25.9086 8 48 8M68 48C68 59.0457 59.0457 68 48 68C36.9543 68 28 59.0457 28 48C28 36.9543 36.9543 28 48 28" stroke="#5479F7" stroke-width="8" stroke-linecap="round" stroke-linejoin="round"/>
</svg>
