<svg width="40" height="40" viewBox="0 0 40 40" fill="none" xmlns="http://www.w3.org/2000/svg">
<path d="M20.0007 36.6663C29.2054 36.6663 36.6673 29.2044 36.6673 19.9997C36.6673 10.7949 29.2054 3.33301 20.0007 3.33301C10.7959 3.33301 3.33398 10.7949 3.33398 19.9997C3.33398 29.2044 10.7959 36.6663 20.0007 36.6663Z" fill="#9EBDFF"/>
<path d="M25.001 24.9998V14.9998H15.001" fill="#9EBDFF"/>
<path d="M25.001 24.9998V14.9998M25.001 14.9998H15.001M25.001 14.9998L15.001 24.9996M36.6673 19.9997C36.6673 29.2044 29.2054 36.6663 20.0007 36.6663C10.7959 36.6663 3.33398 29.2044 3.33398 19.9997C3.33398 10.7949 10.7959 3.33301 20.0007 3.33301C29.2054 3.33301 36.6673 10.7949 36.6673 19.9997Z" stroke="#5479F7" stroke-width="3.33333" stroke-linecap="round" stroke-linejoin="round"/>
</svg>
