<svg width="40" height="40" viewBox="0 0 40 40" fill="none" xmlns="http://www.w3.org/2000/svg">
<path d="M25 7.66667C25 6.73325 25 6.26654 24.8183 5.91002C24.6586 5.59641 24.4036 5.34144 24.09 5.18166C23.7335 5 23.2668 5 22.3333 5L17.6667 5C16.7332 5 16.2665 5 15.91 5.18166C15.5964 5.34144 15.3414 5.59641 15.1817 5.91002C15 6.26654 15 6.73325 15 7.66667L15 35H25V7.66667Z" fill="#9EBDFF"/>
<path d="M15 11.6667H7.66667C6.73325 11.6667 6.26654 11.6667 5.91002 11.8483C5.59641 12.0081 5.34144 12.2631 5.18166 12.5767C5 12.9332 5 13.3999 5 14.3333V32.3333C5 33.2668 5 33.7335 5.18166 34.09C5.34144 34.4036 5.59641 34.6586 5.91002 34.8183C6.26654 35 6.73325 35 7.66667 35H15L15 11.6667Z" fill="#9EBDFF"/>
<path d="M32.3333 18.3333H25V35H32.3333C33.2668 35 33.7335 35 34.09 34.8183C34.4036 34.6586 34.6586 34.4036 34.8183 34.09C35 33.7335 35 33.2668 35 32.3333V21C35 20.0666 35 19.5999 34.8183 19.2433C34.6586 18.9297 34.4036 18.6748 34.09 18.515C33.7335 18.3333 33.2668 18.3333 32.3333 18.3333Z" fill="#9EBDFF"/>
<path d="M15 35H7.66667C6.73325 35 6.26654 35 5.91002 34.8183C5.59641 34.6586 5.34144 34.4036 5.18166 34.09C5 33.7335 5 33.2668 5 32.3333V14.3333C5 13.3999 5 12.9332 5.18166 12.5767C5.34144 12.2631 5.59641 12.0081 5.91002 11.8483C6.26654 11.6667 6.73325 11.6667 7.66667 11.6667H15L15 35ZM15 35H25M15 35L15 7.66667C15 6.73325 15 6.26654 15.1817 5.91002C15.3414 5.59641 15.5964 5.34144 15.91 5.18166C16.2665 5 16.7332 5 17.6667 5L22.3333 5C23.2668 5 23.7335 5 24.09 5.18166C24.4036 5.34144 24.6586 5.59641 24.8183 5.91002C25 6.26654 25 6.73325 25 7.66667V35M25 35H32.3333C33.2668 35 33.7335 35 34.09 34.8183C34.4036 34.6586 34.6586 34.4036 34.8183 34.09C35 33.7335 35 33.2668 35 32.3333V21C35 20.0666 35 19.5999 34.8183 19.2433C34.6586 18.9297 34.4036 18.6748 34.09 18.515C33.7335 18.3333 33.2668 18.3333 32.3333 18.3333H25V35Z" stroke="#5479F7" stroke-width="3.33333" stroke-linecap="round" stroke-linejoin="round"/>
</svg>
