<svg width="40" height="40" viewBox="0 0 40 40" fill="none" xmlns="http://www.w3.org/2000/svg">
<path d="M6.66732 14.6663C6.66732 11.8661 6.66732 10.4659 7.21228 9.39639C7.69165 8.45558 8.45655 7.69068 9.39737 7.21131C10.4669 6.66634 11.8671 6.66634 14.6673 6.66634H25.334C28.1342 6.66634 29.5344 6.66634 30.6039 7.21131C31.5447 7.69068 32.3096 8.45558 32.789 9.39639C33.334 10.4659 33.334 11.8661 33.334 14.6663V25.333C33.334 28.1333 33.334 29.5334 32.789 30.603C32.3096 31.5438 31.5447 32.3087 30.6039 32.788C29.5344 33.333 28.1342 33.333 25.334 33.333H14.6673C11.8671 33.333 10.4669 33.333 9.39737 32.788C8.45655 32.3087 7.69165 31.5438 7.21228 30.603C6.66732 29.5334 6.66732 28.1333 6.66732 25.333V14.6663Z" fill="#9EBDFF"/>
<path d="M15.0007 17.6663C15.0007 16.7329 15.0007 16.2662 15.1823 15.9097C15.3421 15.5961 15.5971 15.3411 15.9107 15.1813C16.2672 14.9997 16.7339 14.9997 17.6673 14.9997H22.334C23.2674 14.9997 23.7341 14.9997 24.0906 15.1813C24.4042 15.3411 24.6592 15.5961 24.819 15.9097C25.0007 16.2662 25.0007 16.7329 25.0007 17.6663V22.333C25.0007 23.2664 25.0007 23.7331 24.819 24.0897C24.6592 24.4033 24.4042 24.6582 24.0906 24.818C23.7341 24.9997 23.2674 24.9997 22.334 24.9997H17.6673C16.7339 24.9997 16.2672 24.9997 15.9107 24.818C15.5971 24.6582 15.3421 24.4033 15.1823 24.0897C15.0007 23.7331 15.0007 23.2664 15.0007 22.333V17.6663Z" fill="#9EBDFF"/>
<path d="M15.0007 3.33301V6.66634M25.0007 3.33301V6.66634M15.0007 33.333V36.6663M25.0007 33.333V36.6663M33.334 14.9997H36.6673M33.334 23.333H36.6673M3.33398 14.9997H6.66732M3.33398 23.333H6.66732M14.6673 33.333H25.334C28.1342 33.333 29.5344 33.333 30.6039 32.788C31.5447 32.3087 32.3096 31.5438 32.789 30.603C33.334 29.5334 33.334 28.1333 33.334 25.333V14.6663C33.334 11.8661 33.334 10.4659 32.789 9.39639C32.3096 8.45558 31.5447 7.69068 30.6039 7.21131C29.5344 6.66634 28.1342 6.66634 25.334 6.66634H14.6673C11.8671 6.66634 10.4669 6.66634 9.39736 7.21131C8.45655 7.69068 7.69165 8.45558 7.21228 9.39639C6.66732 10.4659 6.66732 11.8661 6.66732 14.6663V25.333C6.66732 28.1333 6.66732 29.5334 7.21228 30.603C7.69165 31.5438 8.45655 32.3087 9.39736 32.788C10.4669 33.333 11.8671 33.333 14.6673 33.333ZM17.6673 24.9997H22.334C23.2674 24.9997 23.7341 24.9997 24.0906 24.818C24.4042 24.6582 24.6592 24.4033 24.819 24.0897C25.0007 23.7331 25.0007 23.2664 25.0007 22.333V17.6663C25.0007 16.7329 25.0007 16.2662 24.819 15.9097C24.6592 15.5961 24.4042 15.3411 24.0906 15.1813C23.7341 14.9997 23.2674 14.9997 22.334 14.9997H17.6673C16.7339 14.9997 16.2672 14.9997 15.9107 15.1813C15.5971 15.3411 15.3421 15.5961 15.1823 15.9097C15.0007 16.2662 15.0007 16.7329 15.0007 17.6663V22.333C15.0007 23.2664 15.0007 23.7331 15.1823 24.0897C15.3421 24.4033 15.5971 24.6582 15.9107 24.818C16.2672 24.9997 16.7339 24.9997 17.6673 24.9997Z" stroke="#5479F7" stroke-width="3.33333" stroke-linecap="round" stroke-linejoin="round"/>
</svg>
