<svg width="40" height="40" viewBox="0 0 40 40" fill="none" xmlns="http://www.w3.org/2000/svg">
<path d="M20 13.333C28.2843 13.333 35 11.0944 35 8.33301C35 5.57158 28.2843 3.33301 20 3.33301C11.7157 3.33301 5 5.57158 5 8.33301C5 11.0944 11.7157 13.333 20 13.333Z" fill="#9EBDFF"/>
<path d="M35 19.9997C35 22.7663 28.3333 24.9997 20 24.9997C11.6667 24.9997 5 22.7663 5 19.9997" fill="#9EBDFF"/>
<path d="M5 8.33301V31.6663C5 34.433 11.6667 36.6663 20 36.6663C28.3333 36.6663 35 34.433 35 31.6663V8.33301" fill="#9EBDFF"/>
<path d="M35 8.33301C35 11.0944 28.2843 13.333 20 13.333C11.7157 13.333 5 11.0944 5 8.33301M35 8.33301C35 5.57158 28.2843 3.33301 20 3.33301C11.7157 3.33301 5 5.57158 5 8.33301M35 8.33301V31.6663C35 34.433 28.3333 36.6663 20 36.6663C11.6667 36.6663 5 34.433 5 31.6663V8.33301M35 19.9997C35 22.7663 28.3333 24.9997 20 24.9997C11.6667 24.9997 5 22.7663 5 19.9997" stroke="#5479F7" stroke-width="3.33333" stroke-linecap="round" stroke-linejoin="round"/>
</svg>
