<svg width="40" height="40" viewBox="0 0 40 40" fill="none" xmlns="http://www.w3.org/2000/svg">
<path d="M20.0007 36.6663C29.2054 36.6663 36.6673 29.2044 36.6673 19.9997C36.6673 10.7949 29.2054 3.33301 20.0007 3.33301C10.7959 3.33301 3.33398 10.7949 3.33398 19.9997C3.33398 29.2044 10.7959 36.6663 20.0007 36.6663Z" fill="#9EBDFF"/>
<path d="M13.334 23.333C13.334 23.333 15.834 26.6663 20.0007 26.6663C24.1673 26.6663 26.6673 23.333 26.6673 23.333" fill="#9EBDFF"/>
<path d="M25.834 14.9997C25.834 15.4599 25.4609 15.833 25.0007 15.833C24.5404 15.833 24.1673 15.4599 24.1673 14.9997C24.1673 14.5394 24.5404 14.1663 25.0007 14.1663C25.4609 14.1663 25.834 14.5394 25.834 14.9997Z" fill="#9EBDFF"/>
<path d="M15.834 14.9997C15.834 15.4599 15.4609 15.833 15.0007 15.833C14.5404 15.833 14.1673 15.4599 14.1673 14.9997C14.1673 14.5394 14.5404 14.1663 15.0007 14.1663C15.4609 14.1663 15.834 14.5394 15.834 14.9997Z" fill="#9EBDFF"/>
<path d="M13.334 23.333C13.334 23.333 15.834 26.6663 20.0007 26.6663C24.1673 26.6663 26.6673 23.333 26.6673 23.333M25.0007 14.9997H25.0173M15.0007 14.9997H15.0173M36.6673 19.9997C36.6673 29.2044 29.2054 36.6663 20.0007 36.6663C10.7959 36.6663 3.33398 29.2044 3.33398 19.9997C3.33398 10.7949 10.7959 3.33301 20.0007 3.33301C29.2054 3.33301 36.6673 10.7949 36.6673 19.9997ZM25.834 14.9997C25.834 15.4599 25.4609 15.833 25.0007 15.833C24.5404 15.833 24.1673 15.4599 24.1673 14.9997C24.1673 14.5394 24.5404 14.1663 25.0007 14.1663C25.4609 14.1663 25.834 14.5394 25.834 14.9997ZM15.834 14.9997C15.834 15.4599 15.4609 15.833 15.0007 15.833C14.5404 15.833 14.1673 15.4599 14.1673 14.9997C14.1673 14.5394 14.5404 14.1663 15.0007 14.1663C15.4609 14.1663 15.834 14.5394 15.834 14.9997Z" stroke="#5479F7" stroke-width="3.33333" stroke-linecap="round" stroke-linejoin="round"/>
</svg>
