<svg width="40" height="40" viewBox="0 0 40 40" fill="none" xmlns="http://www.w3.org/2000/svg">
<path d="M3.33398 11.6667H28.6673C31.4676 11.6667 32.8677 11.6667 33.9373 12.2116C34.8781 12.691 35.643 13.4559 36.1223 14.3967C36.6673 15.4663 36.6673 16.8664 36.6673 19.6667V27C36.6673 29.8003 36.6673 31.2004 36.1223 32.27C35.643 33.2108 34.8781 33.9757 33.9373 34.455C32.8677 35 31.4676 35 28.6673 35H11.334C8.53372 35 7.13359 35 6.06403 34.455C5.12322 33.9757 4.35832 33.2108 3.87895 32.27C3.33398 31.2004 3.33398 29.8003 3.33398 27V11.6667Z" fill="#9EBDFF"/>
<path d="M19.1673 28.3333C22.389 28.3333 25.0007 25.7217 25.0007 22.5C25.0007 19.2783 22.389 16.6667 19.1673 16.6667C15.9457 16.6667 13.334 19.2783 13.334 22.5C13.334 25.7217 15.9457 28.3333 19.1673 28.3333Z" fill="#9EBDFF"/>
<path d="M15.0378 5H8.66732C6.80048 5 5.86706 5 5.15402 5.36331C4.52681 5.68289 4.01687 6.19282 3.6973 6.82003C3.33398 7.53307 3.33398 8.46649 3.33398 10.3333V11.6667H21.6673L19.8081 7.94819C19.273 6.87801 19.0054 6.34288 18.6063 5.95194C18.2533 5.60622 17.8279 5.34329 17.3608 5.18218C16.8326 5 16.2343 5 15.0378 5Z" fill="#9EBDFF"/>
<path d="M3.33398 11.6667V10.3333C3.33398 8.46649 3.33398 7.53307 3.6973 6.82003C4.01687 6.19282 4.52681 5.68289 5.15402 5.36331C5.86706 5 6.80048 5 8.66732 5H15.0378C16.2343 5 16.8326 5 17.3608 5.18218C17.8279 5.34329 18.2533 5.60622 18.6063 5.95194C19.0054 6.34288 19.273 6.87801 19.8081 7.94819L21.6673 11.6667H3.33398ZM3.33398 11.6667H28.6673C31.4676 11.6667 32.8677 11.6667 33.9373 12.2116C34.8781 12.691 35.643 13.4559 36.1223 14.3967C36.6673 15.4663 36.6673 16.8664 36.6673 19.6667V27C36.6673 29.8003 36.6673 31.2004 36.1223 32.27C35.643 33.2108 34.8781 33.9757 33.9373 34.455C32.8677 35 31.4676 35 28.6673 35H11.334C8.53372 35 7.13359 35 6.06403 34.455C5.12322 33.9757 4.35832 33.2108 3.87895 32.27C3.33398 31.2004 3.33398 29.8003 3.33398 27V11.6667ZM25.834 29.1667L23.334 26.6667M25.0007 22.5C25.0007 25.7217 22.389 28.3333 19.1673 28.3333C15.9457 28.3333 13.334 25.7217 13.334 22.5C13.334 19.2783 15.9457 16.6667 19.1673 16.6667C22.389 16.6667 25.0007 19.2783 25.0007 22.5Z" stroke="#5479F7" stroke-width="3.33333" stroke-linecap="round" stroke-linejoin="round"/>
</svg>
