<svg width="40" height="40" viewBox="0 0 40 40" fill="none" xmlns="http://www.w3.org/2000/svg">
<path d="M20.5969 6.13044C20.3783 6.02113 20.269 5.96647 20.1543 5.94495C20.0528 5.9259 19.9485 5.9259 19.847 5.94495C19.7323 5.96647 19.623 6.02113 19.4044 6.13044L3.33398 14.1656L19.4044 22.2008C19.623 22.3101 19.7323 22.3648 19.847 22.3863C19.9485 22.4054 20.0528 22.4054 20.1543 22.3863C20.269 22.3648 20.3783 22.3101 20.5969 22.2008L36.6673 14.1656L20.5969 6.13044Z" fill="#9EBDFF"/>
<path d="M19.4044 22.2008L12.1932 18.5953C10.9154 17.9563 10.2764 17.6369 9.75705 17.7136C9.30353 17.7806 8.89764 18.0315 8.63489 18.4071C8.33398 18.8373 8.33398 19.5517 8.33398 20.9804V26.6842C8.33398 27.2825 8.33398 27.5816 8.42508 27.8457C8.50563 28.0792 8.63709 28.2919 8.80995 28.4684C9.00543 28.668 9.27299 28.8018 9.80808 29.0693L18.8081 33.5693C19.2453 33.788 19.464 33.8973 19.6933 33.9403C19.8964 33.9784 20.1049 33.9784 20.308 33.9403C20.5373 33.8973 20.756 33.788 21.1932 33.5693L30.1932 29.0693C30.7283 28.8018 30.9959 28.668 31.1913 28.4684C31.3642 28.2919 31.4957 28.0792 31.5762 27.8457C31.6673 27.5816 31.6673 27.2825 31.6673 26.6842V20.9804C31.6673 19.5517 31.6673 18.8373 31.3664 18.4071C31.1037 18.0315 30.6978 17.7806 30.2443 17.7136C29.7249 17.6369 29.0859 17.9563 27.8081 18.5953L20.5969 22.2008C20.3783 22.3101 20.269 22.3648 20.1543 22.3863C20.0528 22.4054 19.9485 22.4054 19.847 22.3863C19.7323 22.3648 19.623 22.3101 19.4044 22.2008Z" fill="#9EBDFF"/>
<path d="M19.4044 22.2008L3.33398 14.1656L19.4044 6.13044C19.623 6.02113 19.7323 5.96647 19.847 5.94495C19.9485 5.9259 20.0528 5.9259 20.1543 5.94495C20.269 5.96647 20.3783 6.02113 20.5969 6.13044L36.6673 14.1656L20.5969 22.2008M19.4044 22.2008C19.623 22.3101 19.7323 22.3648 19.847 22.3863C19.9485 22.4054 20.0528 22.4054 20.1543 22.3863C20.269 22.3648 20.3783 22.3101 20.5969 22.2008M19.4044 22.2008L12.1932 18.5952C10.9154 17.9563 10.2764 17.6369 9.75705 17.7136C9.30353 17.7806 8.89764 18.0315 8.63489 18.4071C8.33398 18.8373 8.33398 19.5517 8.33398 20.9804V26.6842C8.33398 27.2825 8.33398 27.5816 8.42508 27.8457C8.50563 28.0792 8.63709 28.2919 8.80995 28.4684C9.00543 28.668 9.27299 28.8018 9.80808 29.0693L18.8081 33.5693C19.2453 33.788 19.464 33.8973 19.6933 33.9403C19.8964 33.9784 20.1049 33.9784 20.308 33.9403C20.5373 33.8973 20.756 33.788 21.1932 33.5693L30.1932 29.0693C30.7283 28.8018 30.9959 28.668 31.1913 28.4684C31.3642 28.2919 31.4957 28.0792 31.5762 27.8457C31.6673 27.5816 31.6673 27.2825 31.6673 26.6842V20.9804C31.6673 19.5517 31.6673 18.8373 31.3664 18.4071C31.1037 18.0315 30.6978 17.7806 30.2443 17.7136C29.7249 17.6369 29.0859 17.9563 27.8081 18.5953L20.5969 22.2008" stroke="#5479F7" stroke-width="3.33333" stroke-linecap="round" stroke-linejoin="round"/>
</svg>
