<svg width="40" height="40" viewBox="0 0 40 40" fill="none" xmlns="http://www.w3.org/2000/svg">
<path d="M21.6673 27.4997C21.6673 32.5623 17.6614 36.6663 12.7199 36.6663C11.6992 36.6663 10.7183 36.4912 9.80444 36.1687C9.45758 36.0463 9.28416 35.9851 9.1675 35.9618C9.04466 35.9373 8.97818 35.9305 8.85293 35.9297C8.73398 35.9289 8.59776 35.9475 8.32532 35.9847L3.33398 36.6663L4.35289 32.0635C4.41967 31.7618 4.45306 31.611 4.46078 31.4775C4.46884 31.3382 4.46505 31.2608 4.44341 31.1229C4.42269 30.9908 4.35953 30.7975 4.23323 30.4109C3.93444 29.4962 3.77258 28.5173 3.77258 27.4997C3.77258 22.4371 7.77845 18.333 12.7199 18.333C17.6614 18.333 21.6673 22.4371 21.6673 27.4997Z" fill="#9EBDFF"/>
<path d="M10.0006 16.6663C10.0006 17.3628 10.0543 18.0467 10.1579 18.7143C10.9696 18.4663 11.8296 18.333 12.7199 18.333C17.6614 18.333 21.6673 22.4371 21.6673 27.4997C21.6673 28.3104 21.5646 29.0965 21.3717 29.8451C22.0401 29.9469 22.7247 29.9997 23.4216 29.9997C25.088 29.9997 26.6834 29.698 28.1556 29.1465C28.4712 29.0283 28.629 28.9692 28.7526 28.9433C28.8748 28.9176 28.9612 28.9083 29.0861 28.9076C29.2123 28.9069 29.3509 28.9272 29.6281 28.9679L34.9368 29.746C35.525 29.8322 35.8191 29.8754 36.0358 29.7822C36.2256 29.7005 36.3784 29.5513 36.4644 29.3634C36.5625 29.1489 36.5262 28.8539 36.4536 28.2639L35.7826 22.8135C35.7495 22.545 35.733 22.4107 35.7359 22.2888C35.7387 22.168 35.7488 22.085 35.775 21.967C35.8014 21.848 35.8596 21.6955 35.9759 21.3905C36.5361 19.9221 36.8427 18.3298 36.8427 16.6663C36.8427 9.30254 30.8339 3.33301 23.4216 3.33301C16.0094 3.33301 10.0006 9.30254 10.0006 16.6663Z" fill="#9EBDFF"/>
<path d="M21.6673 27.4997C21.6673 32.5623 17.6614 36.6663 12.7199 36.6663C11.6992 36.6663 10.7183 36.4912 9.80444 36.1687C9.45758 36.0463 9.28416 35.985 9.1675 35.9618C9.04466 35.9373 8.97818 35.9305 8.85293 35.9297C8.73398 35.9289 8.59776 35.9475 8.32532 35.9847L3.33398 36.6663L4.35289 32.0635C4.41967 31.7618 4.45306 31.611 4.46078 31.4775C4.46884 31.3382 4.46505 31.2608 4.44341 31.1229C4.42269 30.9908 4.35953 30.7975 4.23323 30.4109C3.93444 29.4962 3.77258 28.5173 3.77258 27.4997C3.77258 22.4371 7.77845 18.333 12.7199 18.333M21.6673 27.4997C21.6673 22.4371 17.6614 18.333 12.7199 18.333M21.6673 27.4997C21.6673 28.3104 21.5646 29.0965 21.3717 29.8451C22.0401 29.9469 22.7247 29.9997 23.4216 29.9997C25.088 29.9997 26.6834 29.698 28.1556 29.1465C28.4712 29.0283 28.629 28.9692 28.7526 28.9433C28.8748 28.9176 28.9612 28.9083 29.0861 28.9076C29.2123 28.9069 29.3509 28.9272 29.6281 28.9679L34.9368 29.746C35.525 29.8322 35.8191 29.8754 36.0358 29.7822C36.2256 29.7005 36.3784 29.5513 36.4644 29.3634C36.5625 29.1489 36.5262 28.8539 36.4536 28.2639L35.7826 22.8135C35.7495 22.545 35.733 22.4107 35.7359 22.2888C35.7387 22.168 35.7488 22.085 35.775 21.967C35.8014 21.848 35.8596 21.6955 35.9759 21.3905C36.5361 19.9221 36.8427 18.3298 36.8427 16.6663C36.8427 9.30254 30.8339 3.33301 23.4216 3.33301C16.0094 3.33301 10.0006 9.30254 10.0006 16.6663C10.0006 17.3628 10.0543 18.0467 10.1579 18.7143C10.9696 18.4663 11.8296 18.333 12.7199 18.333" stroke="#5479F7" stroke-width="3.33333" stroke-linecap="round" stroke-linejoin="round"/>
</svg>
