<svg width="40" height="40" viewBox="0 0 40 40" fill="none" xmlns="http://www.w3.org/2000/svg">
<path d="M7.66667 23.3333H14C14.9334 23.3333 15.4001 23.3333 15.7566 23.515C16.0703 23.6748 16.3252 23.9297 16.485 24.2433C16.6667 24.5999 16.6667 25.0666 16.6667 26V32.3333C16.6667 33.2668 16.6667 33.7335 16.485 34.09C16.3252 34.4036 16.0703 34.6586 15.7566 34.8183C15.4001 35 14.9334 35 14 35H7.66667C6.73325 35 6.26654 35 5.91002 34.8183C5.59641 34.6586 5.34144 34.4036 5.18166 34.09C5 33.7335 5 33.2668 5 32.3333V26C5 25.0666 5 24.5999 5.18166 24.2433C5.34144 23.9297 5.59641 23.6748 5.91002 23.515C6.26654 23.3333 6.73325 23.3333 7.66667 23.3333Z" fill="#9EBDFF"/>
<path d="M7.66667 5H14C14.9334 5 15.4001 5 15.7566 5.18166C16.0703 5.34144 16.3252 5.59641 16.485 5.91002C16.6667 6.26654 16.6667 6.73325 16.6667 7.66667V14C16.6667 14.9334 16.6667 15.4001 16.485 15.7566C16.3252 16.0703 16.0703 16.3252 15.7566 16.485C15.4001 16.6667 14.9334 16.6667 14 16.6667H7.66667C6.73325 16.6667 6.26654 16.6667 5.91002 16.485C5.59641 16.3252 5.34144 16.0703 5.18166 15.7566C5 15.4001 5 14.9334 5 14V7.66667C5 6.73325 5 6.26654 5.18166 5.91002C5.34144 5.59641 5.59641 5.34144 5.91002 5.18166C6.26654 5 6.73325 5 7.66667 5Z" fill="#9EBDFF"/>
<path d="M26 5H32.3333C33.2668 5 33.7335 5 34.09 5.18166C34.4036 5.34144 34.6586 5.59641 34.8183 5.91002C35 6.26654 35 6.73325 35 7.66667V14C35 14.9334 35 15.4001 34.8183 15.7566C34.6586 16.0703 34.4036 16.3252 34.09 16.485C33.7335 16.6667 33.2668 16.6667 32.3333 16.6667H26C25.0666 16.6667 24.5999 16.6667 24.2433 16.485C23.9297 16.3252 23.6748 16.0703 23.515 15.7566C23.3333 15.4001 23.3333 14.9334 23.3333 14V7.66667C23.3333 6.73325 23.3333 6.26654 23.515 5.91002C23.6748 5.59641 23.9297 5.34144 24.2433 5.18166C24.5999 5 25.0666 5 26 5Z" fill="#9EBDFF"/>
<path d="M10.8333 10.8333H10.85M29.1667 10.8333H29.1833M10.8333 29.1667H10.85M21.6667 21.6667H21.6833M29.1667 29.1667H29.1833M28.3333 35H35V28.3333M23.3333 27.5V35M35 23.3333H27.5M26 16.6667H32.3333C33.2668 16.6667 33.7335 16.6667 34.09 16.485C34.4036 16.3252 34.6586 16.0703 34.8183 15.7566C35 15.4001 35 14.9334 35 14V7.66667C35 6.73325 35 6.26654 34.8183 5.91002C34.6586 5.59641 34.4036 5.34144 34.09 5.18166C33.7335 5 33.2668 5 32.3333 5H26C25.0666 5 24.5999 5 24.2433 5.18166C23.9297 5.34144 23.6748 5.59641 23.515 5.91002C23.3333 6.26654 23.3333 6.73325 23.3333 7.66667V14C23.3333 14.9334 23.3333 15.4001 23.515 15.7566C23.6748 16.0703 23.9297 16.3252 24.2433 16.485C24.5999 16.6667 25.0666 16.6667 26 16.6667ZM7.66667 16.6667H14C14.9334 16.6667 15.4001 16.6667 15.7566 16.485C16.0703 16.3252 16.3252 16.0703 16.485 15.7566C16.6667 15.4001 16.6667 14.9334 16.6667 14V7.66667C16.6667 6.73325 16.6667 6.26654 16.485 5.91002C16.3252 5.59641 16.0703 5.34144 15.7566 5.18166C15.4001 5 14.9334 5 14 5H7.66667C6.73325 5 6.26654 5 5.91002 5.18166C5.59641 5.34144 5.34144 5.59641 5.18166 5.91002C5 6.26654 5 6.73325 5 7.66667V14C5 14.9334 5 15.4001 5.18166 15.7566C5.34144 16.0703 5.59641 16.3252 5.91002 16.485C6.26654 16.6667 6.73325 16.6667 7.66667 16.6667ZM7.66667 35H14C14.9334 35 15.4001 35 15.7566 34.8183C16.0703 34.6586 16.3252 34.4036 16.485 34.09C16.6667 33.7335 16.6667 33.2668 16.6667 32.3333V26C16.6667 25.0666 16.6667 24.5999 16.485 24.2433C16.3252 23.9297 16.0703 23.6748 15.7566 23.515C15.4001 23.3333 14.9334 23.3333 14 23.3333H7.66667C6.73325 23.3333 6.26654 23.3333 5.91002 23.515C5.59641 23.6748 5.34144 23.9297 5.18166 24.2433C5 24.5999 5 25.0666 5 26V32.3333C5 33.2668 5 33.7335 5.18166 34.09C5.34144 34.4036 5.59641 34.6586 5.91002 34.8183C6.26654 35 6.73325 35 7.66667 35Z" stroke="#5479F7" stroke-width="3.33333" stroke-linecap="round" stroke-linejoin="round"/>
</svg>
