<svg width="40" height="40" viewBox="0 0 40 40" fill="none" xmlns="http://www.w3.org/2000/svg">
<path d="M15.834 20C19.9762 20 23.334 16.6421 23.334 12.5C23.334 8.35786 19.9762 5 15.834 5C11.6919 5 8.33404 8.35786 8.33404 12.5C8.33404 16.6421 11.6919 20 15.834 20Z" fill="#9EBDFF"/>
<path d="M15.834 25C11.1163 25 6.92327 27.5743 4.26609 31.5639C3.68398 32.4379 3.39292 32.8749 3.42643 33.4332C3.45252 33.8679 3.73745 34.4 4.08477 34.6627C4.53083 35 5.14432 35 6.3713 35H25.2968C26.5238 35 27.1372 35 27.5833 34.6627C27.9306 34.4 28.2156 33.8679 28.2416 33.4332C28.2752 32.8749 27.9841 32.4379 27.402 31.5639C24.7448 27.5743 20.5517 25 15.834 25Z" fill="#9EBDFF"/>
<path d="M30.0007 26.3948C32.4272 27.6138 34.5076 29.5699 36.0261 32.016C36.3268 32.5005 36.4772 32.7427 36.5292 33.078C36.6348 33.7596 36.1687 34.5976 35.5339 34.8673C35.2216 35 34.8702 35 34.1674 35M26.6674 19.2204C29.1369 17.9931 30.834 15.4448 30.834 12.5C30.834 9.55523 29.1369 7.00685 26.6674 5.7796M23.334 12.5C23.334 16.6421 19.9762 20 15.834 20C11.6919 20 8.33404 16.6421 8.33404 12.5C8.33404 8.35786 11.6919 5 15.834 5C19.9762 5 23.334 8.35786 23.334 12.5ZM4.26609 31.5639C6.92327 27.5743 11.1163 25 15.834 25C20.5517 25 24.7448 27.5743 27.402 31.5639C27.9841 32.4379 28.2752 32.8749 28.2416 33.4332C28.2156 33.8679 27.9306 34.4 27.5833 34.6627C27.1372 35 26.5238 35 25.2968 35H6.3713C5.14432 35 4.53083 35 4.08477 34.6627C3.73745 34.4 3.45252 33.8679 3.42643 33.4332C3.39292 32.8749 3.68398 32.4379 4.26609 31.5639Z" stroke="#5479F7" stroke-width="3.33333" stroke-linecap="round" stroke-linejoin="round"/>
</svg>
