<svg width="19" height="18" viewBox="0 0 19 18" fill="none" xmlns="http://www.w3.org/2000/svg">
<path d="M9.30986 0.582923C9.36987 0.398951 9.63013 0.398951 9.69014 0.582923L11.6976 6.73741C11.7245 6.8197 11.8012 6.87539 11.8878 6.87539H18.3825C18.5765 6.87539 18.6569 7.12371 18.4998 7.23741L13.2468 11.0392C13.1764 11.0901 13.1469 11.1806 13.1739 11.2632L15.1807 17.4155C15.2407 17.5996 15.0302 17.7531 14.8733 17.6395L9.61726 13.8356C9.54729 13.785 9.45271 13.785 9.38274 13.8356L4.12673 17.6395C3.96983 17.7531 3.75927 17.5996 3.81933 17.4155L5.82612 11.2632C5.85306 11.1806 5.82361 11.0901 5.75324 11.0392L0.500217 7.23741C0.343112 7.12371 0.423543 6.87539 0.617476 6.87539H7.11222C7.19878 6.87539 7.27552 6.8197 7.30236 6.73741L9.30986 0.582923Z" fill="white"/>
</svg>
