<svg width="80" height="64" viewBox="0 0 80 64" fill="none" xmlns="http://www.w3.org/2000/svg">
<rect x="6" y="32.5" width="38" height="28" rx="6" fill="#5479F7"/>
<path d="M40.5 59.5H35.118C34.5904 59.5 34.4225 60.2113 34.8944 60.4472L40.2764 63.1382C40.6088 63.3044 41 63.0627 41 62.691V60C41 59.7239 40.7761 59.5 40.5 59.5Z" fill="#5479F7"/>
<path d="M0 41.75C0 41.5926 0.0740971 41.4444 0.2 41.35L3.2 39.1C3.52962 38.8528 4 39.088 4 39.5V53.5C4 53.912 3.52962 54.1472 3.2 53.9L0.2 51.65C0.0740971 51.5556 0 51.4074 0 51.25V41.75Z" fill="#9EBDFF"/>
<path d="M32.9835 27.5C33.076 27.5 33.1667 27.5257 33.2455 27.5742L36.4955 29.5742C36.9249 29.8384 36.7376 30.5 36.2335 30.5L13.7665 30.5C13.2624 30.5 13.0751 29.8384 13.5045 29.5742L16.7545 27.5742C16.8333 27.5257 16.924 27.5 17.0165 27.5L32.9835 27.5Z" fill="#5479F7"/>
<path d="M50 41.75C50 41.5926 49.9259 41.4444 49.8 41.35L46.8 39.1C46.4704 38.8528 46 39.088 46 39.5V53.5C46 53.912 46.4704 54.1472 46.8 53.9L49.8 51.65C49.9259 51.5556 50 51.4074 50 51.25V41.75Z" fill="#9EBDFF"/>
<path d="M17 23.5V27.5H20V23.5H17Z" fill="#5479F7"/>
<path d="M30 23.5V27.5H33V23.5H30Z" fill="#5479F7"/>
<ellipse cx="18.5" cy="21.5" rx="4.5" ry="4" fill="#5479F7"/>
<ellipse cx="31.5" cy="21.5" rx="4.5" ry="4" fill="#5479F7"/>
<path d="M13.5 45C13.2239 45 12.9978 44.7757 13.0206 44.5005C13.1263 43.225 13.6344 42.024 14.4645 41.1109C15.4021 40.0795 16.6739 39.5 18 39.5C19.3261 39.5 20.5979 40.0795 21.5355 41.1109C22.3656 42.024 22.8737 43.225 22.9794 44.5005C23.0022 44.7757 22.7761 45 22.5 45L21.5 45C21.2239 45 21.0036 44.7751 20.9656 44.5016C20.8697 43.8109 20.576 43.1667 20.1213 42.6665C19.5587 42.0477 18.7956 41.7 18 41.7C17.2044 41.7 16.4413 42.0477 15.8787 42.6665C15.424 43.1667 15.1303 43.8109 15.0344 44.5016C14.9964 44.7751 14.7761 45 14.5 45L13.5 45Z" fill="white"/>
<path d="M27.5 45C27.2239 45 26.9978 44.7757 27.0206 44.5005C27.1263 43.225 27.6344 42.024 28.4645 41.1109C29.4021 40.0795 30.6739 39.5 32 39.5C33.3261 39.5 34.5979 40.0795 35.5355 41.1109C36.3656 42.024 36.8737 43.225 36.9794 44.5005C37.0022 44.7757 36.7761 45 36.5 45L35.5 45C35.2239 45 35.0036 44.7751 34.9656 44.5016C34.8697 43.8109 34.576 43.1667 34.1213 42.6665C33.5587 42.0477 32.7956 41.7 32 41.7C31.2044 41.7 30.4413 42.0477 29.8787 42.6665C29.424 43.1667 29.1303 43.8109 29.0344 44.5016C28.9964 44.7751 28.7761 45 28.5 45L27.5 45Z" fill="white"/>
<path d="M18.5 51C18.2239 51 17.9971 51.2246 18.0288 51.4989C18.1767 52.7747 18.888 53.9759 20.0503 54.8891C21.363 55.9205 23.1435 56.5 25 56.5C26.8565 56.5 28.637 55.9205 29.9497 54.8891C31.112 53.9759 31.8233 52.7747 31.9712 51.4989C32.0029 51.2246 31.7761 51 31.5 51L29.7 51C29.4239 51 29.2047 51.2259 29.1521 51.497C29.0181 52.1882 28.6069 52.8329 27.9698 53.3335C27.1822 53.9523 26.1139 54.3 25 54.3C23.8861 54.3 22.8178 53.9523 22.0302 53.3335C21.3931 52.8329 20.9819 52.1882 20.8479 51.497C20.7953 51.2259 20.5761 51 20.3 51L18.5 51Z" fill="white"/>
<rect width="38" height="28" rx="6" transform="matrix(-1 0 0 1 79 0)" fill="#9EBDFF"/>
<path d="M44.5 27H49.882C50.4096 27 50.5775 27.7113 50.1056 27.9472L44.7236 30.6382C44.3912 30.8044 44 30.5627 44 30.191V27.5C44 27.2239 44.2239 27 44.5 27Z" fill="#9EBDFF"/>
<circle cx="55" cy="14" r="2" fill="#FDFDFD"/>
<circle cx="60" cy="14" r="2" fill="#FDFDFD"/>
<circle cx="65" cy="14" r="2" fill="#FDFDFD"/>
</svg>
