<svg width="50" height="46" viewBox="0 0 50 46" fill="none" xmlns="http://www.w3.org/2000/svg">
<rect x="6" y="15" width="38" height="28" rx="6" fill="#5479F7"/>
<path d="M40.5 42H35.118C34.5904 42 34.4225 42.7113 34.8944 42.9472L40.2764 45.6382C40.6088 45.8044 41 45.5627 41 45.191V42.5C41 42.2239 40.7761 42 40.5 42Z" fill="#5479F7"/>
<path d="M0 24.25C0 24.0926 0.0740971 23.9444 0.2 23.85L3.2 21.6C3.52962 21.3528 4 21.588 4 22V36C4 36.412 3.52962 36.6472 3.2 36.4L0.2 34.15C0.0740971 34.0556 0 33.9074 0 33.75V24.25Z" fill="#9EBDFF"/>
<path d="M32.9835 10C33.076 10 33.1667 10.0257 33.2455 10.0742L36.4955 12.0742C36.9249 12.3384 36.7376 13 36.2335 13L13.7665 13C13.2624 13 13.0751 12.3384 13.5045 12.0742L16.7545 10.0742C16.8333 10.0257 16.924 10 17.0165 10L32.9835 10Z" fill="#5479F7"/>
<path d="M50 24.25C50 24.0926 49.9259 23.9444 49.8 23.85L46.8 21.6C46.4704 21.3528 46 21.588 46 22V36C46 36.412 46.4704 36.6472 46.8 36.4L49.8 34.15C49.9259 34.0556 50 33.9074 50 33.75V24.25Z" fill="#9EBDFF"/>
<path d="M17 6V10H20V6H17Z" fill="#5479F7"/>
<path d="M30 6V10H33V6H30Z" fill="#5479F7"/>
<ellipse cx="18.5" cy="4" rx="4.5" ry="4" fill="#5479F7"/>
<ellipse cx="31.5" cy="4" rx="4.5" ry="4" fill="#5479F7"/>
<path d="M13.5 27.5C13.2239 27.5 12.9978 27.2757 13.0206 27.0005C13.1263 25.725 13.6344 24.524 14.4645 23.6109C15.4021 22.5795 16.6739 22 18 22C19.3261 22 20.5979 22.5795 21.5355 23.6109C22.3656 24.524 22.8737 25.725 22.9794 27.0005C23.0022 27.2757 22.7761 27.5 22.5 27.5L21.5 27.5C21.2239 27.5 21.0036 27.2751 20.9656 27.0016C20.8697 26.3109 20.576 25.6667 20.1213 25.1665C19.5587 24.5477 18.7956 24.2 18 24.2C17.2044 24.2 16.4413 24.5477 15.8787 25.1665C15.424 25.6667 15.1303 26.3109 15.0344 27.0016C14.9964 27.2751 14.7761 27.5 14.5 27.5L13.5 27.5Z" fill="white"/>
<path d="M27.5 27.5C27.2239 27.5 26.9978 27.2757 27.0206 27.0005C27.1263 25.725 27.6344 24.524 28.4645 23.6109C29.4021 22.5795 30.6739 22 32 22C33.3261 22 34.5979 22.5795 35.5355 23.6109C36.3656 24.524 36.8737 25.725 36.9794 27.0005C37.0022 27.2757 36.7761 27.5 36.5 27.5L35.5 27.5C35.2239 27.5 35.0036 27.2751 34.9656 27.0016C34.8697 26.3109 34.576 25.6667 34.1213 25.1665C33.5587 24.5477 32.7956 24.2 32 24.2C31.2044 24.2 30.4413 24.5477 29.8787 25.1665C29.424 25.6667 29.1303 26.3109 29.0344 27.0016C28.9964 27.2751 28.7761 27.5 28.5 27.5L27.5 27.5Z" fill="white"/>
<path d="M18.5 33.5C18.2239 33.5 17.9971 33.7246 18.0288 33.9989C18.1767 35.2747 18.888 36.4759 20.0503 37.3891C21.363 38.4205 23.1435 39 25 39C26.8565 39 28.637 38.4205 29.9497 37.3891C31.112 36.4759 31.8233 35.2747 31.9712 33.9989C32.0029 33.7246 31.7761 33.5 31.5 33.5L29.7 33.5C29.4239 33.5 29.2047 33.7259 29.1521 33.997C29.0181 34.6882 28.6069 35.3329 27.9698 35.8335C27.1822 36.4523 26.1139 36.8 25 36.8C23.8861 36.8 22.8178 36.4523 22.0302 35.8335C21.3931 35.3329 20.9819 34.6882 20.8479 33.997C20.7953 33.7259 20.5761 33.5 20.3 33.5L18.5 33.5Z" fill="white"/>
</svg>
