<svg width="80" height="64" viewBox="0 0 80 64" fill="none" xmlns="http://www.w3.org/2000/svg">
<rect x="12" y="33" width="38" height="28" rx="6" fill="#5479F7"/>
<path d="M27 43.5C27 44.8807 25.8807 46 24.5 46C23.1193 46 22 44.8807 22 43.5C22 42.1193 23.1193 41 24.5 41C25.8807 41 27 42.1193 27 43.5Z" fill="white"/>
<path d="M40 43.5C40 44.8807 38.8807 46 37.5 46C36.1193 46 35 44.8807 35 43.5C35 42.1193 36.1193 41 37.5 41C38.8807 41 40 42.1193 40 43.5Z" fill="white"/>
<path d="M31 55C34.334 55 37 52.9051 37 51H25C25 52.9051 27.666 55 31 55Z" stroke="white" stroke-width="2" stroke-linecap="round" stroke-linejoin="round"/>
<path d="M46.5 60H41.118C40.5904 60 40.4225 60.7113 40.8944 60.9472L46.2764 63.6382C46.6088 63.8044 47 63.5627 47 63.191V60.5C47 60.2239 46.7761 60 46.5 60Z" fill="#5479F7"/>
<path d="M6 42.25C6 42.0926 6.0741 41.9444 6.2 41.85L9.2 39.6C9.52962 39.3528 10 39.588 10 40V54C10 54.412 9.52962 54.6472 9.2 54.4L6.2 52.15C6.0741 52.0556 6 51.9074 6 51.75V42.25Z" fill="#9EBDFF"/>
<path d="M38.9835 28C39.076 28 39.1667 28.0257 39.2455 28.0742L42.4955 30.0742C42.9249 30.3384 42.7376 31 42.2335 31L19.7665 31C19.2624 31 19.0751 30.3384 19.5045 30.0742L22.7545 28.0742C22.8333 28.0257 22.924 28 23.0165 28L38.9835 28Z" fill="#5479F7"/>
<path d="M56 42.25C56 42.0926 55.9259 41.9444 55.8 41.85L52.8 39.6C52.4704 39.3528 52 39.588 52 40V54C52 54.412 52.4704 54.6472 52.8 54.4L55.8 52.15C55.9259 52.0556 56 51.9074 56 51.75V42.25Z" fill="#9EBDFF"/>
<path d="M23 24V28H26V24H23Z" fill="#5479F7"/>
<path d="M36 24V28H39V24H36Z" fill="#5479F7"/>
<ellipse cx="24.5" cy="22" rx="4.5" ry="4" fill="#5479F7"/>
<ellipse cx="37.5" cy="22" rx="4.5" ry="4" fill="#5479F7"/>
<g clip-path="url(#clip0_244_1137)">
<circle cx="53" cy="7.5" r="2.5" fill="#9EBDFF"/>
<path d="M46.5 11C46.5 10.2999 46.5 9.9499 46.6362 9.68251C46.7561 9.44731 46.9473 9.25608 47.1825 9.13624C47.4499 9 47.7999 9 48.5 9H69.5C70.2001 9 70.5501 9 70.8175 9.13624C71.0527 9.25608 71.2439 9.44731 71.3638 9.68251C71.5 9.9499 71.5 10.2999 71.5 11V11.8367C71.5 12.1727 71.5 12.3407 71.4589 12.497C71.4226 12.6354 71.3627 12.7665 71.2819 12.8847C71.1907 13.018 71.0638 13.1281 70.8099 13.3481L62.8151 20.2769C62.5612 20.4969 62.4343 20.607 62.3431 20.7403C62.2623 20.8585 62.2024 20.9896 62.1661 21.128C62.125 21.2843 62.125 21.4523 62.125 21.7883V28.323C62.125 28.5674 62.125 28.6896 62.0856 28.7953C62.0507 28.8887 61.9941 28.9724 61.9203 29.0394C61.8368 29.1153 61.7234 29.1607 61.4964 29.2514L57.2464 30.9514C56.787 31.1352 56.5572 31.2271 56.3728 31.1888C56.2116 31.1553 56.0701 31.0595 55.9791 30.9222C55.875 30.7652 55.875 30.5178 55.875 30.023V21.7883C55.875 21.4523 55.875 21.2843 55.8339 21.128C55.7976 20.9896 55.7377 20.8585 55.6569 20.7403C55.5657 20.607 55.4388 20.4969 55.1849 20.2769L47.1901 13.3481C46.9362 13.1281 46.8093 13.018 46.7181 12.8847C46.6373 12.7665 46.5774 12.6354 46.5411 12.497C46.5 12.3407 46.5 12.1727 46.5 11.8367V11Z" fill="#5479F7"/>
<circle cx="66" cy="5.5" r="2.5" fill="#9EBDFF"/>
<circle cx="59" cy="2.5" r="2.5" fill="#9EBDFF"/>
</g>
<defs>
<clipPath id="clip0_244_1137">
<rect width="30" height="30" fill="white" transform="translate(44)"/>
</clipPath>
</defs>
</svg>
