<svg width="34" height="34" viewBox="0 0 34 34" fill="none" xmlns="http://www.w3.org/2000/svg">
<circle cx="17" cy="17" r="17" fill="#5479F7"/>
<path d="M21 13C22.5913 13 24.1174 13.6321 25.2426 14.7574C26.3679 15.8826 27 17.4087 27 19V26H23V19C23 18.4696 22.7893 17.9609 22.4142 17.5858C22.0391 17.2107 21.5304 17 21 17C20.4696 17 19.9609 17.2107 19.5858 17.5858C19.2107 17.9609 19 18.4696 19 19V26H15V19C15 17.4087 15.6321 15.8826 16.7574 14.7574C17.8826 13.6321 19.4087 13 21 13Z" fill="white"/>
<path d="M13 14H9V26H13V14Z" fill="white"/>
<path d="M11 11C12.1046 11 13 10.1046 13 9C13 7.89543 12.1046 7 11 7C9.89543 7 9 7.89543 9 9C9 10.1046 9.89543 11 11 11Z" fill="white"/>
</svg>
