<svg width="80" height="64" viewBox="0 0 80 64" fill="none" xmlns="http://www.w3.org/2000/svg">
<rect x="12" y="33" width="38" height="28" rx="6" fill="#5479F7"/>
<path d="M46.5 60H41.118C40.5904 60 40.4225 60.7113 40.8944 60.9472L46.2764 63.6382C46.6088 63.8044 47 63.5627 47 63.191V60.5C47 60.2239 46.7761 60 46.5 60Z" fill="#5479F7"/>
<path d="M6 42.25C6 42.0926 6.0741 41.9444 6.2 41.85L9.2 39.6C9.52962 39.3528 10 39.588 10 40V54C10 54.412 9.52962 54.6472 9.2 54.4L6.2 52.15C6.0741 52.0556 6 51.9074 6 51.75V42.25Z" fill="#9EBDFF"/>
<path d="M38.9835 28C39.076 28 39.1667 28.0257 39.2455 28.0742L42.4955 30.0742C42.9249 30.3384 42.7376 31 42.2335 31L19.7665 31C19.2624 31 19.0751 30.3384 19.5045 30.0742L22.7545 28.0742C22.8333 28.0257 22.924 28 23.0165 28L38.9835 28Z" fill="#5479F7"/>
<path d="M56 42.25C56 42.0926 55.9259 41.9444 55.8 41.85L52.8 39.6C52.4704 39.3528 52 39.588 52 40V54C52 54.412 52.4704 54.6472 52.8 54.4L55.8 52.15C55.9259 52.0556 56 51.9074 56 51.75V42.25Z" fill="#9EBDFF"/>
<path d="M23 24V28H26V24H23Z" fill="#5479F7"/>
<path d="M36 24V28H39V24H36Z" fill="#5479F7"/>
<ellipse cx="24.5" cy="22" rx="4.5" ry="4" fill="#5479F7"/>
<ellipse cx="37.5" cy="22" rx="4.5" ry="4" fill="#5479F7"/>
<path d="M19.5 41.5C19.2239 41.5 18.9978 41.7243 19.0206 41.9995C19.1263 43.275 19.6344 44.476 20.4645 45.3891C21.4021 46.4205 22.6739 47 24 47C25.3261 47 26.5979 46.4205 27.5355 45.3891C28.3656 44.476 28.8737 43.275 28.9794 41.9995C29.0022 41.7243 28.7761 41.5 28.5 41.5L27.5 41.5C27.2239 41.5 27.0036 41.7249 26.9656 41.9984C26.8697 42.6891 26.576 43.3333 26.1213 43.8335C25.5587 44.4523 24.7956 44.8 24 44.8C23.2044 44.8 22.4413 44.4523 21.8787 43.8335C21.424 43.3333 21.1303 42.6891 21.0344 41.9984C20.9964 41.7249 20.7761 41.5 20.5 41.5L19.5 41.5Z" fill="white"/>
<path d="M33.5 41.5C33.2239 41.5 32.9978 41.7243 33.0206 41.9995C33.1263 43.275 33.6344 44.476 34.4645 45.3891C35.4021 46.4205 36.6739 47 38 47C39.3261 47 40.5979 46.4205 41.5355 45.3891C42.3656 44.476 42.8737 43.275 42.9794 41.9995C43.0022 41.7243 42.7761 41.5 42.5 41.5L41.5 41.5C41.2239 41.5 41.0036 41.7249 40.9656 41.9984C40.8697 42.6891 40.576 43.3333 40.1213 43.8335C39.5587 44.4523 38.7956 44.8 38 44.8C37.2044 44.8 36.4413 44.4523 35.8787 43.8335C35.424 43.3333 35.1303 42.6891 35.0344 41.9984C34.9964 41.7249 34.7761 41.5 34.5 41.5L33.5 41.5Z" fill="white"/>
<path d="M24.5 51.5C24.2239 51.5 23.9971 51.7246 24.0288 51.9989C24.1767 53.2747 24.888 54.4759 26.0503 55.3891C27.363 56.4205 29.1435 57 31 57C32.8565 57 34.637 56.4205 35.9497 55.3891C37.112 54.4759 37.8233 53.2747 37.9712 51.9989C38.0029 51.7246 37.7761 51.5 37.5 51.5L35.7 51.5C35.4239 51.5 35.2047 51.7259 35.1521 51.997C35.0181 52.6882 34.6069 53.3329 33.9698 53.8335C33.1822 54.4523 32.1139 54.8 31 54.8C29.8861 54.8 28.8178 54.4523 28.0302 53.8335C27.3931 53.3329 26.9819 52.6882 26.8479 51.997C26.7953 51.7259 26.5761 51.5 26.3 51.5L24.5 51.5Z" fill="white"/>
<circle cx="63.332" cy="16.8926" r="5.5" fill="#5479F7"/>
<path d="M62.832 17.3926L51.332 28.8926" stroke="#5479F7" stroke-width="2"/>
<path d="M62.4177 16.6457L53.0184 13.5388" stroke="#5479F7" stroke-width="2"/>
<path d="M62.9019 16.7283L69.4885 24.1187" stroke="#5479F7" stroke-width="2"/>
<path d="M63.1961 18.4093L69.6512 4.44188" stroke="#5479F7" stroke-width="2"/>
<circle cx="51.832" cy="28.3926" r="3" fill="#F6F9FD" stroke="#5479F7" stroke-width="2"/>
<circle cx="52.5278" cy="12.7568" r="3" transform="rotate(63.2913 52.5278 12.7568)" fill="#5479F7"/>
<circle cx="70.6673" cy="25.8959" r="3" transform="rotate(-86.7087 70.6673 25.8959)" fill="#5479F7"/>
<circle cx="69.7612" cy="4.26422" r="3.01523" transform="rotate(134.835 69.7612 4.26422)" fill="#F6F9FD" stroke="#5479F7" stroke-width="2"/>
</svg>
