<svg width="34" height="34" viewBox="0 0 34 34" fill="none" xmlns="http://www.w3.org/2000/svg">
<circle cx="17" cy="17" r="17" fill="#5479F7"/>
<path d="M27 8.94647C26.1294 9.54878 25.1656 10.0094 24.1455 10.3107C23.5979 9.69326 22.8703 9.2556 22.0609 9.05697C21.2516 8.85833 20.3995 8.9083 19.6201 9.20011C18.8406 9.49192 18.1713 10.0115 17.7027 10.6886C17.2341 11.3656 16.9888 12.1675 17 12.9858V13.8774C15.4024 13.9181 13.8193 13.5705 12.3918 12.8658C10.9643 12.161 9.73665 11.1209 8.81818 9.83815C8.81818 9.83815 5.18182 17.8633 13.3636 21.43C11.4914 22.6765 9.26105 23.3015 7 23.2133C15.1818 27.6717 25.1818 23.2133 25.1818 12.959C25.181 12.7106 25.1566 12.4629 25.1091 12.2189C26.0369 11.3214 26.6917 10.1883 27 8.94647Z" fill="white"/>
</svg>
